<svg xmlns="http://www.w3.org/2000/svg" x="0" y="0" width="20px" height="20px" viewBox="0 0 21 20.56">
  <path d="M12,1.5A10.5,10.5,0,0,0,9,22.06S9,22,9,22a2,2,0,0,1,2-2h2a2,2,0,0,1,2,2s0,0,0,.06A10.5,10.5,0,0,0,12,1.5Zm-7.5,12A1.5,1.5,0,1,1,6,12,1.5,1.5,0,0,1,4.5,13.5ZM6.75,8.25a1.5,1.5,0,1,1,1.5-1.5A1.5,1.5,0,0,1,6.75,8.25ZM12,6a1.5,1.5,0,1,1,1.5-1.5A1.5,1.5,0,0,1,12,6Zm3.75,0.75a1.5,1.5,0,1,1,1.5,1.5A1.5,1.5,0,0,1,15.75,6.75ZM19.5,13.5A1.5,1.5,0,1,1,21,12,1.5,1.5,0,0,1,19.5,13.5Z" transform="translate(-1.5 -1.5)"/>
</svg>